<?xml version="1.0" encoding="UTF-8"?>
<svg width="48px" height="48px" viewBox="0 0 48 48" version="1.1" xmlns="http://www.w3.org/2000/svg" xmlns:xlink="http://www.w3.org/1999/xlink">
    <!-- Generator: Sketch 59.1 (86144) - https://sketch.com -->
    <title>画板</title>
    <desc>Created with Sketch.</desc>
    <defs>
        <polygon id="path-1" points="0 0.428215856 35.7569 0.428215856 35.7569 19.7253 0 19.7253"></polygon>
    </defs>
    <g id="画板" stroke="none" stroke-width="1" fill="none" fill-rule="evenodd">
        <g id="编组" transform="translate(3.000000, 3.000000)">
            <g transform="translate(0.000000, 0.572000)">
                <mask id="mask-2" fill="white">
                    <use xlink:href="#path-1"></use>
                </mask>
                <g id="Clip-2"></g>
                <path d="M5.0869,19.7253 C8.5779,14.1473 14.0929,7.5743 21.3759,5.8833 C26.0699,4.7943 30.8909,5.9123 35.7569,9.1903 C22.3739,-1.1227 -5.5281,-5.0207 0.9649,12.6703 C0.9649,12.6703 2.4629,15.8173 5.0869,19.7253" id="Fill-1" fill="#00C1DE" mask="url(#mask-2)"></path>
            </g>
            <path d="M25.4718,36.648 C24.8508,36.648 24.2278,36.607 23.6018,36.525 C15.7098,35.487 9.1878,28.19 5.1088,22.262 C2.5568,26.463 1.2018,29.927 1.2018,29.927 C-3.6822,45.522 17.2078,43.417 31.2098,35.453 C29.3218,36.248 27.4068,36.648 25.4718,36.648" id="Fill-3" fill="#00C1DE"></path>
            <path d="M23.1062,24.909838 L23.1062,16.846162 C23.1062,15.7415925 24.0016305,14.846162 25.1062,14.846162 C25.4572836,14.846162 25.8021815,14.9385799 26.1062262,15.1141263 L33.0893308,19.1459643 C34.0459077,19.6982635 34.3736395,20.9214493 33.8213403,21.8780262 C33.6458093,22.1820442 33.3933488,22.4345047 33.0893308,22.6100357 L26.1062262,26.6418737 C25.1496493,27.1941729 23.9264635,26.866441 23.3741643,25.9098641 C23.1986179,25.6058195 23.1062,25.2609215 23.1062,24.909838 Z M39.1232,13.703 C33.1472,8.228 27.2542,6.115 21.6032,7.429 C14.5582,9.064 9.1312,15.724 5.7302,21.237 C5.7322,21.241 5.7352,21.245 5.7382,21.249 C5.7282,21.265 5.7182,21.28 5.7082,21.295 C9.6862,27.139 16.1242,34.533 23.7342,35.534 C29.1722,36.255 34.4872,33.593 39.5522,27.644 C40.6582,26.345 41.3422,25.069 41.7092,23.838 C43.3392,20.182 42.4812,16.78 39.1232,13.703 L39.1232,13.703 Z" id="Fill-5" fill="#00C1DE"></path>
        </g>
    </g>
</svg>